<?xml version="1.0" encoding="UTF-8"?>
<svg id="Calque_1" data-name="Calque 1" xmlns="http://www.w3.org/2000/svg" viewBox="0 0 300 116.07">
  <defs>
    <style>
      .cls-1 {
        fill: #fff;
      }

      .cls-2 {
        font-family: Gabarito-Regular, Gabarito;
        font-size: 14px;
        font-variation-settings: 'wght' 400;
      }

      .cls-3 {
        letter-spacing: -.01em;
      }

      .cls-4 {
        letter-spacing: -.05em;
      }
    </style>
  </defs>
  <g>
    <path d="M111.49,89.69c-.53.95-1.1,1.81-2.29,2-3.53.55-8.38-.39-12.05.02-1.78-.28-2.67-1.75-2.46-3.48-9.47,3.55-20.39,3.49-29.69-.54-.43.31-.22.86-.32,1.32-1.37,6.09-8.13,9.25-13.6,6.02-.68-.4-1.13-.9-1.77-1.29-4.41,4.2-11.48,3.03-14.46-2.2l-10.08,8.92c-2.89,1.12-4.45-.6-4.03-3.48.79-5.44,2.82-11.11,3.69-16.59l1.55-3.01c0-.17-1.81-.58-2.18-.73-4.85-1.96-7.15-7.35-5.09-12.21,5.26-8.13,8.8-19.46,16.33-25.69,3.08-2.54,9.48-7.79,13.33-8.04,1.54-.1,2.8.32,4.29.46l10.24-17.55c1.9-2.13,4.6-2.85,7.3-1.83,4.53,1.71,9.03,5.5,6.43,10.81l-7.52,13.03,21.83,11.33h3.75c-.19-1.87.05-4.21,2.29-4.56,1.81-.28,10.4-.28,12.22,0,1.19.19,1.76,1.04,2.29,2v45.31ZM71.6,18.85c-.13-.15-3.2-1.93-3.42-1.98-.34-.09-.54-.1-.87.04-.58.25-2.8,5.06-3.51,5.82l4.65,2.83,3.34-5.62c.09-.35.04-.8-.2-1.09ZM38.22,67.03h6.3l21.27-36.63-4.64-2.79-22.93,39.42ZM49.73,36.16c-.56-.04-1.07,0-1.62.12-1.58.34-8.19,5.49-9.8,6.83-2.42,2.01-3.47,3.6-5.06,6.27-3.5,5.89-6.7,12.07-9.82,18.14-.46,3.64,4.03,5.81,6.45,2.98l19.84-34.33ZM94.68,52.42h-5.02l-23.47-12.05-15.17,26.67h9.04c2.07-1.42,4.21-3.56,6.32-4.83,3.33-1.99,5.99,1.69,3.73,4.09-1.01,1.08-6.24,4.9-7.63,5.71-.32.19-.62.4-1,.46l-24.08.03c-4.83.44-4.67,6.92-.18,7.32,7.49.67,15.96-.53,23.56,0,2.01.55,3.74,1.75,5.65,2.57,9.09,3.91,19.17,3.82,28.26-.03v-29.96ZM106.01,47.85h-5.85v38.37h5.85v-38.37ZM34.02,84.58c-1.78-.47-2.95-1.9-4.2-3.11l-2.01,8.77c.31.08.37-.12.55-.27,1.44-1.15,3.23-2.74,4.57-4.02.22-.21,1.26-1.13,1.09-1.37ZM46.63,85.31h-6.39c-.04.73-.81,1.27-.91,1.93-.23,1.55,1.38,3.25,2.87,3.51,3.38.58,4.84-2.52,4.43-5.44ZM59.42,85.31h-7.31v2.83c0,.53,1.28,1.91,1.82,2.2,3.49,1.89,6.15-1.73,5.49-5.03Z"/>
    <path class="cls-1" d="M94.68,52.42v29.96c-9.09,3.85-19.17,3.95-28.26.03-1.91-.82-3.64-2.02-5.65-2.57-7.6-.54-16.07.66-23.56,0-4.49-.4-4.65-6.88.18-7.32l24.08-.03c.38-.06.68-.27,1-.46,1.39-.81,6.62-4.63,7.63-5.71,2.26-2.4-.39-6.08-3.73-4.09-2.11,1.26-4.25,3.41-6.32,4.83h-9.04l15.17-26.67,23.47,12.05h5.02Z"/>
    <path class="cls-1" d="M49.73,36.16l-19.84,34.33c-2.42,2.83-6.92.66-6.45-2.98,3.12-6.07,6.32-12.25,9.82-18.14,1.59-2.67,2.64-4.25,5.06-6.27,1.61-1.33,8.22-6.49,9.8-6.83.55-.12,1.06-.16,1.62-.12Z"/>
    <polygon class="cls-1" points="38.22 67.03 61.15 27.62 65.79 30.4 44.53 67.03 38.22 67.03"/>
    <rect class="cls-1" x="100.16" y="47.85" width="5.85" height="38.37"/>
    <path class="cls-1" d="M71.6,18.85c.24.29.29.74.2,1.09l-3.34,5.62-4.65-2.83c.71-.76,2.93-5.57,3.51-5.82.33-.14.53-.13.87-.04.21.05,3.29,1.83,3.42,1.98Z"/>
    <path class="cls-1" d="M59.42,85.31c.66,3.3-2,6.92-5.49,5.03-.54-.29-1.82-1.67-1.82-2.2v-2.83h7.31Z"/>
    <path class="cls-1" d="M46.63,85.31c.4,2.92-1.05,6.01-4.43,5.44-1.49-.25-3.1-1.96-2.87-3.51.1-.66.87-1.2.91-1.93h6.39Z"/>
    <path class="cls-1" d="M34.02,84.58c.17.24-.87,1.16-1.09,1.37-1.34,1.28-3.13,2.87-4.57,4.02-.18.15-.24.35-.55.27l2.01-8.77c1.25,1.21,2.42,2.63,4.2,3.11Z"/>
  </g>
  <g>
    <path d="M118.57,44.99c0-.42-.03-.7-.08-.86-.06-.15-.22-.23-.49-.23-.19,0-.33-.09-.42-.26-.09-.18-.13-.38-.13-.6,0-.21.04-.4.13-.58.09-.18.23-.27.42-.27h6.58c.69,0,1.43.08,2.23.25.8.17,1.53.45,2.21.84.68.39,1.24.92,1.69,1.58.45.66.67,1.48.67,2.46,0,.67-.11,1.27-.34,1.78-.22.51-.52.96-.89,1.35-.37.39-.8.71-1.28.98-.48.27-.99.48-1.52.64,1.08.42,1.89.99,2.43,1.72.55.73.9,1.72,1.06,2.98.02.16.08.3.2.41.12.11.28.17.47.17.18,0,.31.09.41.26.1.18.14.37.14.58,0,.22-.05.43-.14.6-.1.18-.23.27-.41.27h-3.45c-.31,0-.5-.18-.58-.53-.05-.19-.07-.41-.07-.65,0-.18.02-.37.05-.58v-.17c0-.55-.14-1.1-.42-1.66-.28-.56-.68-1.08-1.21-1.54-.52-.47-1.11-.84-1.77-1.11-.58-.22-1.17-.34-1.76-.34h-.31v3.93c0,.27.03.5.08.67.06.18.22.27.49.27.19,0,.33.09.42.26.09.18.13.37.13.58,0,.22-.04.43-.13.61-.09.19-.23.28-.42.28h-4.58c-.19,0-.33-.09-.42-.28-.09-.18-.13-.39-.13-.61,0-.21.04-.4.13-.58.09-.18.23-.26.42-.26.27,0,.44-.09.49-.27.06-.18.08-.4.08-.67v-11.43ZM122.57,43.91c-.27,0-.44.07-.49.22s-.08.43-.08.84v5.81h2.6c.74,0,1.35-.17,1.83-.51.48-.34.85-.76,1.1-1.28s.37-1.07.37-1.66-.12-1.12-.37-1.64c-.25-.51-.62-.94-1.11-1.28-.49-.34-1.1-.51-1.84-.51h-2Z"/>
    <path d="M144.03,55.96c-.37,1.17-1.01,2.02-1.92,2.53-.91.51-2.05.77-3.41.77-.93,0-1.75-.19-2.46-.55-.71-.37-1.3-.85-1.77-1.45-.47-.59-.83-1.27-1.07-2.04-.24-.76-.36-1.55-.36-2.35v-.14c0-.76.12-1.5.36-2.24.24-.74.61-1.41,1.11-2.01.5-.6,1.12-1.09,1.88-1.46.76-.37,1.65-.55,2.68-.55,1.16,0,2.12.2,2.88.6.76.4,1.33.9,1.71,1.51.38.6.57,1.26.57,1.96s-.19,1.37-.58,1.98c-.47.74-1.11,1.28-1.93,1.63-.82.35-1.67.52-2.56.52-.48,0-.95-.05-1.41-.14-.46-.1-.88-.24-1.27-.43.02.63.11,1.16.29,1.6.18.44.4.81.66,1.1.27.29.57.5.9.63.34.13.68.19,1.04.19.59,0,1.14-.17,1.64-.52.5-.35.8-.82.89-1.41.03-.22.18-.41.45-.54.26-.14.53-.21.81-.21s.51.08.72.24c.13.11.19.26.19.46,0,.1-.02.21-.05.34ZM136.48,52.39c.34.29.69.51,1.06.65s.74.22,1.11.22c.5,0,.96-.14,1.37-.41s.76-.71,1.01-1.3c.18-.39.28-.8.31-1.23v-.14c0-.37-.06-.72-.19-1.06-.13-.34-.34-.62-.64-.86-.3-.23-.68-.35-1.14-.35-.63,0-1.13.14-1.51.43-.38.29-.67.66-.88,1.11-.21.45-.35.94-.41,1.46-.06.52-.1,1.02-.1,1.48Z"/>
    <path d="M151.52,46.37c.87,0,1.66.18,2.39.54s1.27.9,1.64,1.63c.11.19.17.39.17.6,0,.02,0,.08-.01.19,0,.11-.12.24-.33.39l-1.13.82c-.06.05-.15.07-.26.07-.14,0-.29-.06-.43-.18s-.26-.26-.35-.41c-.09-.15-.13-.32-.13-.49v-.05c0-.14.06-.26.17-.34.08-.06.12-.14.12-.22,0-.14-.14-.32-.43-.53-.34-.21-.72-.31-1.16-.31h-.24c-.58.06-1.06.34-1.45.83s-.67,1.09-.86,1.8c-.19.71-.28,1.46-.28,2.27s.1,1.55.29,2.24.48,1.26.86,1.71.86.67,1.43.67,1.09-.15,1.48-.46c.39-.31.73-.64,1-1.01.11-.18.24-.3.4-.39.15-.08.32-.12.49-.12.21,0,.41.04.6.13s.35.2.47.34c.12.14.19.3.2.49,0,.18-.07.35-.22.51-.53.64-1.17,1.17-1.9,1.59-.74.42-1.58.63-2.53.63-1.01,0-1.9-.19-2.65-.55-.76-.37-1.38-.86-1.88-1.47s-.87-1.3-1.11-2.07c-.24-.77-.36-1.57-.36-2.39s.13-1.59.39-2.36c.26-.77.64-1.46,1.14-2.07.51-.61,1.13-1.1,1.88-1.47.75-.37,1.61-.55,2.59-.55Z"/>
    <path d="M170.13,57.36c.19,0,.33.09.42.26.09.18.13.37.13.58,0,.22-.04.43-.13.6-.09.18-.23.27-.42.27h-1.76c-.47,0-.89-.13-1.28-.39s-.66-.68-.82-1.28c-.45.4-.96.74-1.54,1.02-.58.28-1.17.48-1.76.59-.32.06-.64.1-.96.1-.27,0-.63-.03-1.06-.1-.43-.06-.88-.27-1.34-.61-.46-.35-.83-.83-1.11-1.45-.28-.62-.42-1.41-.42-2.37v-5.25c0-.27-.03-.5-.08-.67-.06-.18-.22-.27-.49-.27-.19,0-.33-.09-.42-.26-.09-.18-.13-.38-.13-.6,0-.21.04-.4.13-.58.09-.18.23-.26.42-.26.96,0,1.72.03,2.26.08.55.06.95.17,1.21.35.26.18.41.44.46.8.05.35.07.83.07,1.42v5.06c0,.96.18,1.65.53,2.05.32.39.72.58,1.18.58h.4c.25,0,.64-.16,1.17-.49.53-.33.98-.74,1.35-1.24v-5.95c0-.27-.03-.5-.08-.67-.06-.18-.22-.27-.49-.27-.19,0-.33-.09-.42-.26-.09-.18-.13-.38-.13-.6,0-.21.04-.4.13-.58.09-.18.23-.26.42-.26.96,0,1.72.02,2.25.06.54.04.93.15,1.19.33.26.18.41.44.47.8.06.35.08.84.08,1.47v6.94c0,.42.03.7.08.86.06.15.22.23.49.23Z"/>
    <path d="M182.69,55.96c-.37,1.17-1.01,2.02-1.92,2.53-.91.51-2.05.77-3.41.77-.93,0-1.75-.19-2.46-.55-.71-.37-1.3-.85-1.77-1.45-.47-.59-.83-1.27-1.07-2.04-.24-.76-.36-1.55-.36-2.35v-.14c0-.76.12-1.5.36-2.24.24-.74.61-1.41,1.11-2.01.5-.6,1.12-1.09,1.88-1.46.76-.37,1.65-.55,2.68-.55,1.16,0,2.12.2,2.88.6.76.4,1.33.9,1.71,1.51.38.6.57,1.26.57,1.96s-.19,1.37-.58,1.98c-.47.74-1.11,1.28-1.93,1.63-.82.35-1.67.52-2.56.52-.48,0-.95-.05-1.41-.14-.46-.1-.88-.24-1.27-.43.02.63.11,1.16.29,1.6.18.44.4.81.66,1.1.27.29.57.5.9.63.34.13.68.19,1.04.19.59,0,1.14-.17,1.64-.52.5-.35.8-.82.89-1.41.03-.22.18-.41.45-.54.27-.14.53-.21.81-.21s.51.08.72.24c.13.11.19.26.19.46,0,.1-.02.21-.05.34ZM175.14,52.39c.34.29.69.51,1.06.65s.74.22,1.11.22c.5,0,.96-.14,1.37-.41.42-.27.75-.71,1.01-1.3.18-.39.28-.8.31-1.23v-.14c0-.37-.06-.72-.19-1.06-.13-.34-.34-.62-.64-.86-.3-.23-.68-.35-1.15-.35-.63,0-1.13.14-1.51.43-.38.29-.67.66-.88,1.11s-.35.94-.41,1.46c-.06.52-.1,1.02-.1,1.48Z"/>
    <path d="M188.54,49.45v3.09l.02.8v3.09c0,.26.03.48.08.66.05.18.22.28.49.28.18,0,.31.09.41.26.1.18.14.37.14.58,0,.22-.05.43-.14.6-.1.18-.23.27-.41.27h-4.58c-.19,0-.33-.09-.42-.27-.09-.18-.13-.38-.13-.6,0-.21.04-.4.13-.58.09-.18.23-.26.42-.26.27,0,.44-.09.49-.28.06-.19.08-.41.08-.66v-3.09l-.02-.8v-3.09c0-.42-.03-.7-.08-.84s-.22-.22-.49-.22c-.19,0-.33-.09-.42-.26-.09-.18-.13-.38-.13-.6,0-.21.04-.4.13-.58.09-.18.23-.26.42-.26h1.76c.61,0,1.14.21,1.58.64s.66,1.14.66,2.13ZM184.37,44.41c0-.5.17-.92.52-1.27.35-.35.77-.52,1.27-.52s.92.17,1.25.52c.34.35.51.77.51,1.27s-.17.92-.52,1.27c-.35.35-.76.52-1.24.52-.52,0-.94-.18-1.28-.53-.34-.35-.51-.77-.51-1.25Z"/>
    <path d="M195.15,44.97v11.45c0,.26.03.48.08.66.06.18.22.28.49.28.19,0,.33.09.42.26.09.18.13.37.13.58,0,.22-.04.43-.13.6-.09.18-.23.27-.42.27h-4.58c-.19,0-.33-.09-.42-.27-.09-.18-.13-.38-.13-.6,0-.21.04-.4.13-.58.09-.18.23-.26.42-.26.27,0,.44-.09.49-.28.06-.19.08-.41.08-.66v-11.45c0-.42-.03-.7-.08-.84s-.22-.22-.49-.22c-.19,0-.33-.09-.42-.26-.09-.18-.13-.38-.13-.6,0-.21.04-.4.13-.58.09-.18.23-.27.42-.27h1.76c.3,0,.59.05.87.14.27.1.51.26.71.48.2.22.36.51.48.86.12.35.18.78.18,1.29Z"/>
    <path d="M211.22,44.53c-.51.58-.93,1.31-1.25,2.18-.32.88-.53,1.8-.63,2.78-.05.48-.07.97-.07,1.47s.04,1.1.12,1.84c.08.75.31,1.52.67,2.31.37.8.86,1.44,1.48,1.94.62.5,1.38.76,2.28.77h.12c.79,0,1.51-.14,2.16-.43.65-.29,1.28-.83,1.89-1.61.16-.21.36-.31.6-.31.19,0,.39.06.58.17.19.11.35.25.47.42s.2.35.23.54v.05c0,.18-.06.33-.19.46-.34.32-.69.63-1.06.92-.37.29-.79.54-1.27.76s-1.01.39-1.6.52c-.59.13-1.29.19-2.1.19-1.46,0-2.72-.29-3.78-.88s-1.92-1.35-2.58-2.3c-.66-.95-1.12-2.02-1.37-3.21-.19-.8-.29-1.61-.29-2.43,0-.39.04-.97.12-1.76.08-.79.37-1.72.88-2.81.51-1.08,1.2-2,2.08-2.74.69-.58,1.47-1.01,2.35-1.3.88-.29,1.78-.43,2.71-.43,1.06,0,2.1.19,3.11.55.37.13.66.25.88.35.22.1.41.16.59.16.16,0,.32-.05.48-.14.08-.05.15-.07.22-.07.1,0,.21.04.34.13.13.09.25.23.36.41.11.19.18.37.19.57v.05c0,.18-.07.31-.22.39l-2.31,1.37s-.1.05-.17.05-.15-.02-.27-.06c-.11-.04-.22-.12-.32-.24-.1-.12-.19-.26-.25-.42-.05-.11-.07-.22-.07-.31,0-.05,0-.1.02-.15v-.07c0-.06-.02-.11-.06-.13s-.12-.08-.25-.16c-.66-.4-1.36-.6-2.1-.6-.5,0-.98.1-1.45.3s-.89.51-1.28.93Z"/>
    <path d="M225.3,49.45v3.09l.02.8v3.09c0,.26.03.48.08.66.05.18.22.28.49.28.18,0,.31.09.41.26.1.18.14.37.14.58,0,.22-.05.43-.14.6-.1.18-.23.27-.41.27h-4.58c-.19,0-.33-.09-.42-.27-.09-.18-.13-.38-.13-.6,0-.21.04-.4.13-.58.09-.18.23-.26.42-.26.27,0,.44-.09.49-.28.06-.19.08-.41.08-.66v-3.09l-.02-.8v-3.09c0-.42-.03-.7-.08-.84s-.22-.22-.49-.22c-.19,0-.33-.09-.42-.26-.09-.18-.13-.38-.13-.6,0-.21.04-.4.13-.58.09-.18.23-.26.42-.26h1.76c.61,0,1.14.21,1.58.64s.66,1.14.66,2.13ZM221.13,44.41c0-.5.17-.92.52-1.27.35-.35.77-.52,1.27-.52s.92.17,1.25.52c.34.35.51.77.51,1.27s-.17.92-.52,1.27c-.35.35-.76.52-1.24.52-.52,0-.94-.18-1.28-.53-.34-.35-.51-.77-.51-1.25Z"/>
    <path d="M227.45,44.73c.21,0,.35-.09.41-.27.06-.18.1-.43.1-.75,0-.22.03-.44.1-.65.06-.21.18-.39.34-.53.1-.08.21-.14.35-.18s.32-.07.54-.1.5-.04.83-.05c.33,0,.73-.01,1.22-.01l.02,1.86c0,.31.06.49.17.55.11.06.4.1.87.1h2.1c.19,0,.33.09.42.26.09.18.13.37.13.58,0,.23-.04.43-.13.6-.09.18-.23.26-.42.26h-2.22c-.22,0-.4.02-.52.07s-.21.13-.27.24c-.06.11-.09.26-.1.45,0,.19-.01.41-.01.69v7.95c0,.42.03.76.08,1.04.06.27.17.46.35.55.08.06.18.1.31.1.11,0,.27-.04.48-.11.21-.07.55-.28,1.04-.61.13-.1.27-.14.41-.14.06,0,.16.03.3.08.14.06.26.18.39.36.12.18.18.33.19.45s.01.18.01.19c0,.19-.09.36-.26.51-.35.27-.77.51-1.24.72-.47.21-.96.36-1.46.46-.3.06-.6.1-.89.1-.19,0-.46-.02-.8-.06s-.7-.19-1.07-.43c-.38-.25-.68-.62-.92-1.11-.23-.49-.35-1.12-.35-1.89v-8.12c0-.32,0-.58-.02-.78-.02-.2-.06-.35-.13-.46-.07-.1-.18-.17-.33-.2-.14-.03-.35-.05-.63-.05h-.65c-.19,0-.33-.09-.42-.26-.09-.18-.13-.38-.13-.6,0-.21.05-.4.14-.58.1-.18.23-.27.41-.27l1.25.05Z"/>
    <path d="M235.69,52.78c0-.9.15-1.74.46-2.52.3-.78.72-1.46,1.25-2.05.53-.59,1.15-1.05,1.87-1.39.71-.34,1.48-.51,2.3-.51s1.56.17,2.28.51c.71.34,1.34.8,1.87,1.39.53.59.95,1.27,1.25,2.05.3.78.46,1.62.46,2.52s-.15,1.72-.46,2.51c-.31.79-.72,1.47-1.25,2.06-.53.59-1.15,1.05-1.87,1.39-.72.34-1.48.51-2.28.51s-1.59-.17-2.3-.51c-.72-.34-1.34-.8-1.87-1.39-.53-.59-.95-1.27-1.25-2.06-.31-.79-.46-1.62-.46-2.51ZM241.57,57.53c.53,0,.97-.23,1.33-.7.35-.47.62-1.05.81-1.76.18-.71.28-1.47.28-2.29s-.08-1.58-.25-2.29c-.17-.71-.43-1.29-.8-1.76-.36-.47-.82-.7-1.36-.7s-1,.23-1.36.7c-.36.47-.63,1.05-.81,1.76-.18.71-.27,1.47-.27,2.29s.09,1.58.28,2.29c.18.71.46,1.29.82,1.76.36.47.81.7,1.34.7Z"/>
    <path d="M260.1,46.73c.19,0,.34.09.43.27.1.18.15.37.15.58s-.05.4-.15.58c-.1.18-.23.27-.41.27h-.34c-.08,0-.15.02-.21.05s-.11.09-.16.18c-.05.09-.11.22-.19.4-.76,1.9-1.47,3.78-2.13,5.65-.67,1.87-1.37,3.75-2.11,5.63-.29.74-.61,1.47-.98,2.19-.36.72-.76,1.36-1.2,1.9-.44.55-.93.97-1.46,1.28-.4.22-.84.34-1.3.34-.14,0-.29,0-.43-.02-.61-.1-1.09-.28-1.42-.55-.34-.27-.56-.59-.67-.94-.08-.21-.12-.43-.12-.65,0-.13.02-.32.07-.58s.17-.53.37-.81c.2-.28.45-.49.76-.64.16-.06.32-.1.48-.1.15,0,.3.02.46.07.22.08.38.21.46.37.08.17.15.34.21.52s.13.33.23.46c.06.11.2.17.41.17h.07c.29-.02.55-.14.8-.37s.47-.54.69-.93c.22-.39.43-.84.64-1.35.21-.51.42-1.08.63-1.69-.15-.1-.24-.22-.29-.39l-3.66-9.11c-.13-.31-.25-.56-.37-.77-.12-.21-.34-.31-.66-.31-.19,0-.33-.09-.42-.27-.09-.18-.13-.38-.13-.6,0-.21.04-.4.13-.58.09-.18.23-.26.42-.26h4.34c.18,0,.31.09.41.26.1.18.14.37.14.58,0,.22-.05.43-.14.6-.1.18-.23.27-.41.27v.02s0,.06.01.12c0,.06.04.16.08.28s.1.25.16.37c.06.13.1.24.13.34l1.88,4.72,2.1-5.18c.05-.11.08-.25.1-.41v-.05c0-.13-.06-.19-.19-.19-.18,0-.31-.09-.4-.27-.09-.18-.13-.38-.13-.6,0-.21.04-.4.13-.58.09-.18.22-.27.4-.27h2.82Z"/>
    <path d="M272.32,55.96c-.37,1.17-1.01,2.02-1.92,2.53-.91.51-2.05.77-3.41.77-.93,0-1.75-.19-2.46-.55-.71-.37-1.3-.85-1.77-1.45-.47-.59-.83-1.27-1.07-2.04-.24-.76-.36-1.55-.36-2.35v-.14c0-.76.12-1.5.36-2.24.24-.74.61-1.41,1.11-2.01.5-.6,1.12-1.09,1.88-1.46.76-.37,1.65-.55,2.68-.55,1.16,0,2.12.2,2.88.6.76.4,1.33.9,1.71,1.51.38.6.57,1.26.57,1.96s-.19,1.37-.58,1.98c-.47.74-1.11,1.28-1.93,1.63-.82.35-1.67.52-2.56.52-.48,0-.95-.05-1.41-.14-.46-.1-.88-.24-1.27-.43.02.63.11,1.16.29,1.6.18.44.4.81.66,1.1.27.29.57.5.9.63.34.13.68.19,1.04.19.59,0,1.14-.17,1.64-.52.5-.35.8-.82.89-1.41.03-.22.18-.41.45-.54.27-.14.53-.21.81-.21s.51.08.72.24c.13.11.19.26.19.46,0,.1-.02.21-.05.34ZM264.78,52.39c.34.29.69.51,1.06.65s.74.22,1.11.22c.5,0,.96-.14,1.37-.41.42-.27.75-.71,1.01-1.3.18-.39.28-.8.31-1.23v-.14c0-.37-.06-.72-.19-1.06-.13-.34-.34-.62-.64-.86-.3-.23-.68-.35-1.15-.35-.63,0-1.13.14-1.51.43-.38.29-.67.66-.88,1.11s-.35.94-.41,1.46c-.06.52-.1,1.02-.1,1.48Z"/>
    <path d="M278.35,56.37c0,.26.03.49.08.69.05.2.22.3.49.3.19,0,.33.09.42.26.09.18.13.37.13.58,0,.22-.04.43-.13.6-.09.18-.23.27-.42.27h-4.58c-.19,0-.33-.09-.42-.27-.09-.18-.13-.38-.13-.6,0-.21.04-.4.13-.58.09-.18.23-.26.42-.26.27,0,.44-.09.49-.28.06-.19.08-.41.08-.66v-6.97c0-.42-.03-.7-.08-.84s-.22-.22-.49-.22c-.19,0-.33-.09-.42-.26-.09-.18-.13-.38-.13-.6,0-.21.04-.4.13-.58.09-.18.23-.26.42-.26h1.76c.47,0,.89.12,1.28.37s.66.66.82,1.24c.45-.4.97-.74,1.54-1.02s1.17-.48,1.78-.59c.32-.05.64-.07.96-.07.27,0,.62.03,1.05.1s.87.27,1.33.61c.46.35.83.83,1.11,1.45s.42,1.41.42,2.37v5.25c0,.26.03.48.08.66s.22.28.49.28c.19,0,.33.09.42.26.09.18.13.37.13.58,0,.22-.04.43-.13.6-.09.18-.23.27-.42.27h-4.58c-.19,0-.33-.09-.42-.27-.09-.18-.13-.38-.13-.6,0-.21.04-.4.13-.58.09-.18.23-.26.42-.26.27,0,.44-.09.49-.28s.08-.41.08-.66v-5.06c0-.98-.17-1.67-.52-2.07-.35-.4-.75-.6-1.22-.6-.5.02-1.01.19-1.54.52-.53.33-.98.74-1.35,1.24v5.95Z"/>
  </g>
  <text class="cls-2" transform="translate(117.44 77.57)"><tspan x="0" y="0">Enquête environnement</tspan><tspan class="cls-3" x="148.73" y="0">a</tspan><tspan x="155.41" y="0">le</tspan><tspan x="0" y="14">sur les AFSB - 20</tspan><tspan class="cls-4" x="102.62" y="14">2</tspan><tspan x="108.86" y="14">4</tspan></text>
</svg>